<?xml version="1.0" encoding="UTF-8"?>
<!DOCTYPE svg PUBLIC "-//W3C//DTD SVG 1.1//EN" "http://www.w3.org/Graphics/SVG/1.1/DTD/svg11.dtd">
<svg xmlns="http://www.w3.org/2000/svg" version="1.1" width="512px" height="512px" style="shape-rendering:geometricPrecision; text-rendering:geometricPrecision; image-rendering:optimizeQuality; fill-rule:evenodd; clip-rule:evenodd" xmlns:xlink="http://www.w3.org/1999/xlink">
<g><path style="opacity:0.965" fill="#000000" d="M 181.5,30.5 C 230.834,30.3333 280.168,30.5 329.5,31C 337.816,33.3133 343.649,38.48 347,46.5C 348.331,56.4499 348.831,66.4499 348.5,76.5C 372.836,76.3334 397.169,76.5 421.5,77C 430.237,79.4035 436.071,84.9035 439,93.5C 439.667,105.5 439.667,117.5 439,129.5C 435.394,140.268 427.894,145.935 416.5,146.5C 416.667,245.167 416.5,343.834 416,442.5C 410.971,462.862 398.137,475.028 377.5,479C 296.167,479.667 214.833,479.667 133.5,479C 112.096,474.719 99.2627,461.885 95,440.5C 94.5,342.501 94.3333,244.501 94.5,146.5C 82.8736,145.609 75.3736,139.609 72,128.5C 71.3333,117.167 71.3333,105.833 72,94.5C 74.5,85.3333 80.3333,79.5 89.5,77C 114.164,76.5 138.831,76.3334 163.5,76.5C 163.074,66.0878 163.574,55.7544 165,45.5C 168.173,37.8218 173.673,32.8218 181.5,30.5 Z M 194.5,53.5 C 235.168,53.3333 275.835,53.5 316.5,54C 319.583,54.786 321.749,56.6193 323,59.5C 324.271,64.7539 324.771,70.0873 324.5,75.5C 278.833,75.5 233.167,75.5 187.5,75.5C 187.334,70.4889 187.501,65.4889 188,60.5C 189.694,57.6424 191.861,55.309 194.5,53.5 Z M 102.5,100.5 C 204.501,100.333 306.501,100.5 408.5,101C 415.81,104.754 417.643,110.254 414,117.5C 412.363,119.81 410.196,121.31 407.5,122C 306.167,122.667 204.833,122.667 103.5,122C 95.6536,118.776 93.487,113.276 97,105.5C 98.7297,103.598 100.563,101.931 102.5,100.5 Z M 118.5,146.5 C 210.167,146.5 301.833,146.5 393.5,146.5C 393.667,242.501 393.5,338.501 393,434.5C 391.847,445.321 386.013,452.154 375.5,455C 295.5,455.667 215.5,455.667 135.5,455C 128.39,452.7 123.223,448.2 120,441.5C 118.507,343.224 118.007,244.89 118.5,146.5 Z"/></g>
<g><path style="opacity:0.954" fill="#000000" d="M 185.5,202.5 C 191.218,202.774 195.385,205.441 198,210.5C 198.667,266.833 198.667,323.167 198,379.5C 194.253,387.119 188.42,389.285 180.5,386C 177.412,383.924 175.579,381.091 175,377.5C 174.333,322.5 174.333,267.5 175,212.5C 176.459,206.871 179.959,203.538 185.5,202.5 Z"/></g>
<g><path style="opacity:0.954" fill="#000000" d="M 254.5,202.5 C 260.218,202.774 264.385,205.441 267,210.5C 267.667,266.833 267.667,323.167 267,379.5C 262.301,387.987 255.801,389.654 247.5,384.5C 245.703,382.869 244.536,380.869 244,378.5C 243.333,323.167 243.333,267.833 244,212.5C 245.459,206.871 248.959,203.538 254.5,202.5 Z"/></g>
<g><path style="opacity:0.954" fill="#000000" d="M 323.5,202.5 C 329.748,202.699 333.914,205.699 336,211.5C 336.667,267.5 336.667,323.5 336,379.5C 331.301,387.987 324.801,389.654 316.5,384.5C 314.703,382.869 313.536,380.869 313,378.5C 312.333,322.833 312.333,267.167 313,211.5C 314.884,206.439 318.384,203.439 323.5,202.5 Z"/></g>
</svg>
